<svg class="main-svg" xmlns="http://www.w3.org/2000/svg" xmlns:xlink="http://www.w3.org/1999/xlink" width="1200" height="600" style="" viewBox="0 0 1200 600"><rect x="0" y="0" width="1200" height="600" style="fill: rgb(255, 255, 255); fill-opacity: 1;"/><defs id="defs-2730a2"><g class="clips"><clipPath id="clip2730a2xyplot" class="plotclip"><rect width="847" height="470"/></clipPath><clipPath class="axesclip" id="clip2730a2x"><rect x="80" y="0" width="847" height="600"/></clipPath><clipPath class="axesclip" id="clip2730a2y"><rect x="0" y="50" width="1200" height="470"/></clipPath><clipPath class="axesclip" id="clip2730a2xy"><rect x="80" y="50" width="847" height="470"/></clipPath></g><g class="gradients"/></defs><g class="bglayer"/><g class="layer-below"><g class="imagelayer"/><g class="shapelayer"/></g><g class="cartesianlayer"><g class="subplot xy"><g class="layer-subplot"><g class="shapelayer"/><g class="imagelayer"/></g><g class="gridlayer"><g class="x"><path class="xgrid crisp" transform="translate(246.28,0)" d="M0,50v470" style="stroke: rgb(238, 238, 238); stroke-opacity: 1; stroke-width: 1px;"/><path class="xgrid crisp" transform="translate(412.58,0)" d="M0,50v470" style="stroke: rgb(238, 238, 238); stroke-opacity: 1; stroke-width: 1px;"/><path class="xgrid crisp" transform="translate(578.88,0)" d="M0,50v470" style="stroke: rgb(238, 238, 238); stroke-opacity: 1; stroke-width: 1px;"/><path class="xgrid crisp" transform="translate(745.18,0)" d="M0,50v470" style="stroke: rgb(238, 238, 238); stroke-opacity: 1; stroke-width: 1px;"/><path class="xgrid crisp" transform="translate(911.48,0)" d="M0,50v470" style="stroke: rgb(238, 238, 238); stroke-opacity: 1; stroke-width: 1px;"/></g><g class="y"><path class="ygrid crisp" transform="translate(0,441.74)" d="M80,0h847" style="stroke: rgb(238, 238, 238); stroke-opacity: 1; stroke-width: 1px;"/><path class="ygrid crisp" transform="translate(0,386.74)" d="M80,0h847" style="stroke: rgb(238, 238, 238); stroke-opacity: 1; stroke-width: 1px;"/><path class="ygrid crisp" transform="translate(0,331.75)" d="M80,0h847" style="stroke: rgb(238, 238, 238); stroke-opacity: 1; stroke-width: 1px;"/><path class="ygrid crisp" transform="translate(0,276.76)" d="M80,0h847" style="stroke: rgb(238, 238, 238); stroke-opacity: 1; stroke-width: 1px;"/><path class="ygrid crisp" transform="translate(0,221.77)" d="M80,0h847" style="stroke: rgb(238, 238, 238); stroke-opacity: 1; stroke-width: 1px;"/><path class="ygrid crisp" transform="translate(0,166.78)" d="M80,0h847" style="stroke: rgb(238, 238, 238); stroke-opacity: 1; stroke-width: 1px;"/><path class="ygrid crisp" transform="translate(0,111.78)" d="M80,0h847" style="stroke: rgb(238, 238, 238); stroke-opacity: 1; stroke-width: 1px;"/><path class="ygrid crisp" transform="translate(0,56.79)" d="M80,0h847" style="stroke: rgb(238, 238, 238); stroke-opacity: 1; stroke-width: 1px;"/></g></g><g class="zerolinelayer"><path class="yzl zl crisp" transform="translate(0,496.73)" d="M80,0h847" style="stroke: rgb(68, 68, 68); stroke-opacity: 1; stroke-width: 1px;"/></g><path class="xlines-below"/><path class="ylines-below"/><g class="overlines-below"/><g class="xaxislayer-below"/><g class="yaxislayer-below"/><g class="overaxes-below"/><g class="plot" transform="translate(80, 50)" clip-path="url('#clip2730a2xyplot')"><g class="scatterlayer mlayer"><g class="trace scatter trace45daad0" style="stroke-miterlimit: 2; opacity: 1;"><g class="fills"/><g class="errorbars"/><g class="lines"><path class="js-line" style="vector-effect: non-scaling-stroke; fill: none; stroke: rgb(251, 147, 65); stroke-opacity: 1; stroke-width: 1.5px; opacity: 1;" d="M0,442.64L0.83,160.32L3.61,239.72L9.45,395.89L10.91,410.69L23.61,432.34L26.91,436.09L44.19,440.33L51.37,440.97L54.06,442.95L61.31,443.69L66.04,444.33L77.75,445.06L81.7,444L85.64,445.58L91.42,445.89L92.75,445.02L93.83,445.48L101.16,445.08L120.32,444.32L134.55,445.3L170.91,445.72L186.95,446.1L190.38,446.02L197.71,445.89L207.18,446.03L210.82,445.29L220.41,446.08L235.96,446.05L274.68,445.81L283.74,445.8L295.03,446.22L296.91,445.64L302.78,446.08L317.27,446.15L346.7,446.5L370.22,395.51L374.37,386.86L375.65,358.66L381.34,349.58L381.84,351.97L395.83,365.13L403.86,370.09L407.12,375.38L410.16,370.46L422.68,368.42L431.91,362.6L434.21,366.33L442.19,377.13L449.43,373.95L452.58,369.41L454.75,378.74L458.49,384.22L462.95,367.29L470.61,374.86L477.53,374.5L478.28,377.68L479.58,377.53L484.96,378.46L485.03,376.47L489.42,379.28L492.95,372.96L496.62,374.08L499.12,375.1L505.62,373.7L509.88,380.37L513.7,371.38L527.17,383.68L527.75,381.88L532.97,383.96L536.23,386.15L540.99,381.31L543.35,387.13L562.43,387.29L565.98,386.15L574.6,388.25L582.08,381.06L584.19,390.57L584.98,385.84L591.5,387.2L606.73,384.74L631.69,396.57L639.61,387.14L642.83,390.28L644.1,387.33L653.44,381.7L654.82,385.16L655.09,386.51L656.52,386.61L671.92,390.91L674.33,385.88L681.96,384.2L690.23,389.48L700.54,381.54L706.49,389.89L709.1,391.87L714.99,396.42L728.51,386.09L733.75,393.72L738.65,390.87L747.38,398.76L750.63,390.62L754.69,389.96L757.55,394.6L766.86,393.01L787.81,391.95L791.72,393.24L792.62,388.97L800.9,389.62"/></g><g class="points"/><g class="text"/></g><g class="trace scatter trace69c7530" style="stroke-miterlimit: 2; opacity: 1;"><g class="fills"/><g class="errorbars"/><g class="lines"><path class="js-line" style="vector-effect: non-scaling-stroke; fill: none; stroke: rgb(4, 108, 190); stroke-opacity: 1; stroke-width: 1.5px; opacity: 1;" d="M0,442.64L1.16,164.65L1.53,171.55L4.57,279.15L5.69,247.51L6.45,233.09L7.78,261.52L9.73,341.3L10.54,348.3L11.46,370.89L13.45,400.78L14.8,407.58L15.7,414.14L17.21,420.71L18.36,418.85L19.36,420.56L22.92,424.43L23.65,424.83L24.56,424.26L26.62,418.54L26.76,418.56L28.3,411.82L29.39,412.82L30.18,405.99L33.18,350.59L34.72,377.65L36.19,382.78L37.47,376.35L38.5,377.57L40.81,363.8L41.04,364.29L44.83,331.63L45.38,334.67L46.6,330.61L48.18,317.67L49.17,267.82L51.14,164.15L51.85,136.27L56.23,128.8L57.42,184.7L58.17,193.31L59.15,141.59L60.63,106.12L63.13,111.8L63.74,130.1L65.16,124.49L65.21,124.16L65.52,133.61L67.7,156.44L70.93,147.07L71.92,162.04L71.96,160.1L73.39,165.54L74.62,182.41L75.03,146.96L76.75,186.25L77.55,186.33L78.21,132.69L78.96,150.71L79.47,162.29L81.69,169.55L82.47,158.86L83.32,172.18L84.55,185.05L84.91,184.16L86.13,180.66L87.57,198.34L88.09,203.76L88.19,201.25L88.44,169.34L90.23,199.27L90.63,203.94L92.33,191.05L92.55,197.17L94.24,215.06L95.26,200.5L95.44,192.58L96,206.22L96.92,211.47L98.43,236.01L100.23,234.64L101.11,246.11L102.81,234.59L102.87,237.52L103.89,240.19L105.25,246.73L105.78,225.49L107.2,234.95L108.46,257.35L111.04,251.56L112.97,252.13L114.03,258.8L114.33,335.66L114.36,334.54L115.98,312.14L119.1,278.8L119.7,212.51L119.77,408.78L120.04,388.76L120.7,345.03L120.83,340.19L124.38,23.5L126.34,380.4L126.54,186.85L127.27,272.09L127.7,243.01"/></g><g class="points"/><g class="text"/></g><g class="trace scatter tracec54b2e" style="stroke-miterlimit: 2; opacity: 1;"><g class="fills"/><g class="errorbars"/><g class="lines"/><g class="points"><path class="point" transform="translate(800.9,389.62)" style="opacity: 1; stroke-width: 0px; fill: rgb(251, 147, 65); fill-opacity: 1;" d="M3,0A3,3 0 1,1 0,-3A3,3 0 0,1 3,0Z"/></g><g class="text"/></g><g class="trace scatter trace0f391a" style="stroke-miterlimit: 2; opacity: 1;"><g class="fills"/><g class="errorbars"/><g class="lines"/><g class="points"><path class="point" transform="translate(127.7,243.01)" style="opacity: 1; stroke-width: 0px; fill: rgb(4, 108, 190); fill-opacity: 1;" d="M3,0A3,3 0 1,1 0,-3A3,3 0 0,1 3,0Z"/></g><g class="text"/></g></g></g><g class="overplot"/><path class="xlines-above crisp" style="fill: none;" d="M0,0"/><path class="ylines-above crisp" style="fill: none;" d="M0,0"/><g class="overlines-above"/><g class="xaxislayer-above"><g class="xtick"><text text-anchor="middle" x="0" y="543" style="font-family: TOBESTRIPPEDOpen SansTOBESTRIPPED, verdana, arial, sans-serif; font-size: 12px; fill: rgb(32, 32, 32); fill-opacity: 1; white-space: pre;" transform="translate(79.98,0)">0</text></g><g class="xtick"><text text-anchor="middle" x="0" y="543" style="font-family: TOBESTRIPPEDOpen SansTOBESTRIPPED, verdana, arial, sans-serif; font-size: 12px; fill: rgb(32, 32, 32); fill-opacity: 1; white-space: pre;" transform="translate(246.28,0)">10k</text></g><g class="xtick"><text text-anchor="middle" x="0" y="543" style="font-family: TOBESTRIPPEDOpen SansTOBESTRIPPED, verdana, arial, sans-serif; font-size: 12px; fill: rgb(32, 32, 32); fill-opacity: 1; white-space: pre;" transform="translate(412.58,0)">20k</text></g><g class="xtick"><text text-anchor="middle" x="0" y="543" style="font-family: TOBESTRIPPEDOpen SansTOBESTRIPPED, verdana, arial, sans-serif; font-size: 12px; fill: rgb(32, 32, 32); fill-opacity: 1; white-space: pre;" transform="translate(578.88,0)">30k</text></g><g class="xtick"><text text-anchor="middle" x="0" y="543" style="font-family: TOBESTRIPPEDOpen SansTOBESTRIPPED, verdana, arial, sans-serif; font-size: 12px; fill: rgb(32, 32, 32); fill-opacity: 1; white-space: pre;" transform="translate(745.18,0)">40k</text></g><g class="xtick"><text text-anchor="middle" x="0" y="543" style="font-family: TOBESTRIPPEDOpen SansTOBESTRIPPED, verdana, arial, sans-serif; font-size: 12px; fill: rgb(32, 32, 32); fill-opacity: 1; white-space: pre;" transform="translate(911.48,0)">50k</text></g></g><g class="yaxislayer-above"><g class="ytick"><text text-anchor="end" x="69" y="4.199999999999999" style="font-family: TOBESTRIPPEDOpen SansTOBESTRIPPED, verdana, arial, sans-serif; font-size: 12px; fill: rgb(32, 32, 32); fill-opacity: 1; white-space: pre;" transform="translate(0,496.73)">0</text></g><g class="ytick"><text text-anchor="end" x="69" y="4.199999999999999" style="font-family: TOBESTRIPPEDOpen SansTOBESTRIPPED, verdana, arial, sans-serif; font-size: 12px; fill: rgb(32, 32, 32); fill-opacity: 1; white-space: pre;" transform="translate(0,441.74)">0.05</text></g><g class="ytick"><text text-anchor="end" x="69" y="4.199999999999999" style="font-family: TOBESTRIPPEDOpen SansTOBESTRIPPED, verdana, arial, sans-serif; font-size: 12px; fill: rgb(32, 32, 32); fill-opacity: 1; white-space: pre;" transform="translate(0,386.74)">0.1</text></g><g class="ytick"><text text-anchor="end" x="69" y="4.199999999999999" style="font-family: TOBESTRIPPEDOpen SansTOBESTRIPPED, verdana, arial, sans-serif; font-size: 12px; fill: rgb(32, 32, 32); fill-opacity: 1; white-space: pre;" transform="translate(0,331.75)">0.15</text></g><g class="ytick"><text text-anchor="end" x="69" y="4.199999999999999" style="font-family: TOBESTRIPPEDOpen SansTOBESTRIPPED, verdana, arial, sans-serif; font-size: 12px; fill: rgb(32, 32, 32); fill-opacity: 1; white-space: pre;" transform="translate(0,276.76)">0.2</text></g><g class="ytick"><text text-anchor="end" x="69" y="4.199999999999999" style="font-family: TOBESTRIPPEDOpen SansTOBESTRIPPED, verdana, arial, sans-serif; font-size: 12px; fill: rgb(32, 32, 32); fill-opacity: 1; white-space: pre;" transform="translate(0,221.77)">0.25</text></g><g class="ytick"><text text-anchor="end" x="69" y="4.199999999999999" style="font-family: TOBESTRIPPEDOpen SansTOBESTRIPPED, verdana, arial, sans-serif; font-size: 12px; fill: rgb(32, 32, 32); fill-opacity: 1; white-space: pre;" transform="translate(0,166.78)">0.3</text></g><g class="ytick"><text text-anchor="end" x="69" y="4.199999999999999" style="font-family: TOBESTRIPPEDOpen SansTOBESTRIPPED, verdana, arial, sans-serif; font-size: 12px; fill: rgb(32, 32, 32); fill-opacity: 1; white-space: pre;" transform="translate(0,111.78)">0.35</text></g><g class="ytick"><text text-anchor="end" x="69" y="4.199999999999999" style="font-family: TOBESTRIPPEDOpen SansTOBESTRIPPED, verdana, arial, sans-serif; font-size: 12px; fill: rgb(32, 32, 32); fill-opacity: 1; white-space: pre;" transform="translate(0,56.79)">0.4</text></g></g><g class="overaxes-above"/></g></g><g class="polarlayer"/><g class="ternarylayer"/><g class="geolayer"/><g class="funnelarealayer"/><g class="pielayer"/><g class="treemaplayer"/><g class="sunburstlayer"/><g class="glimages"/><defs id="topdefs-2730a2"><g class="clips"/><clipPath id="legend2730a2"><rect width="244" height="58" x="0" y="0"/></clipPath></defs><g class="layer-above"><g class="imagelayer"/><g class="shapelayer"/></g><g class="infolayer"><g class="legend" pointer-events="all" transform="translate(943.94, 50)"><rect class="bg" shape-rendering="crispEdges" style="stroke: rgb(68, 68, 68); stroke-opacity: 1; fill: rgb(255, 255, 255); fill-opacity: 1; stroke-width: 0px;" width="244" height="58" x="0" y="0"/><g class="scrollbox" transform="translate(0, 0)" clip-path="url('#legend2730a2')"><g class="groups" transform="translate(0, 0)"><g class="traces" style="opacity: 1;" transform="translate(0, 14.5)"><text class="legendtext" text-anchor="start" style="font-family: TOBESTRIPPEDOpen SansTOBESTRIPPED, verdana, arial, sans-serif; font-size: 12px; fill: rgb(68, 68, 68); fill-opacity: 1; white-space: pre;" x="40" y="4.680000000000001">Running Grad norm (PER_Beta=0.4)</text><g class="layers" style="opacity: 1;"><g class="legendfill"/><g class="legendlines"><path class="js-line" d="M5,0h30" style="fill: none; stroke: rgb(251, 147, 65); stroke-opacity: 1; stroke-width: 1.5px;"/></g><g class="legendsymbols"><g class="legendpoints"/></g></g><rect class="legendtoggle" style="fill: rgb(0, 0, 0); fill-opacity: 0;" x="0" y="-9.5" width="238.3333282470703" height="19"/></g></g><g class="groups" transform="translate(0, 10)"><g class="traces" style="opacity: 1;" transform="translate(0, 33.5)"><text class="legendtext" text-anchor="start" style="font-family: TOBESTRIPPEDOpen SansTOBESTRIPPED, verdana, arial, sans-serif; font-size: 12px; fill: rgb(68, 68, 68); fill-opacity: 1; white-space: pre;" x="40" y="4.680000000000001">Running Grad norm (PER_Beta=0.1)</text><g class="layers" style="opacity: 1;"><g class="legendfill"/><g class="legendlines"><path class="js-line" d="M5,0h30" style="fill: none; stroke: rgb(4, 108, 190); stroke-opacity: 1; stroke-width: 1.5px;"/></g><g class="legendsymbols"><g class="legendpoints"/></g></g><rect class="legendtoggle" style="fill: rgb(0, 0, 0); fill-opacity: 0;" x="0" y="-9.5" width="238.3333282470703" height="19"/></g></g></g><rect class="scrollbar" rx="20" ry="3" width="0" height="0" style="fill: rgb(128, 139, 164); fill-opacity: 1;" x="0" y="0"/></g><g class="g-gtitle"/><g class="g-xtitle"/><g class="g-ytitle"/></g></svg>