<svg class="main-svg" xmlns="http://www.w3.org/2000/svg" xmlns:xlink="http://www.w3.org/1999/xlink" width="1200" height="600" style="" viewBox="0 0 1200 600"><rect x="0" y="0" width="1200" height="600" style="fill: rgb(255, 255, 255); fill-opacity: 1;"/><defs id="defs-a53b5a"><g class="clips"><clipPath id="clipa53b5axyplot" class="plotclip"><rect width="859" height="470"/></clipPath><clipPath class="axesclip" id="clipa53b5ax"><rect x="80" y="0" width="859" height="600"/></clipPath><clipPath class="axesclip" id="clipa53b5ay"><rect x="0" y="50" width="1200" height="470"/></clipPath><clipPath class="axesclip" id="clipa53b5axy"><rect x="80" y="50" width="859" height="470"/></clipPath></g><g class="gradients"/></defs><g class="bglayer"/><g class="layer-below"><g class="imagelayer"/><g class="shapelayer"/></g><g class="cartesianlayer"><g class="subplot xy"><g class="layer-subplot"><g class="shapelayer"/><g class="imagelayer"/></g><g class="gridlayer"><g class="x"><path class="xgrid crisp" transform="translate(248.65,0)" d="M0,50v470" style="stroke: rgb(238, 238, 238); stroke-opacity: 1; stroke-width: 1px;"/><path class="xgrid crisp" transform="translate(417.32,0)" d="M0,50v470" style="stroke: rgb(238, 238, 238); stroke-opacity: 1; stroke-width: 1px;"/><path class="xgrid crisp" transform="translate(585.98,0)" d="M0,50v470" style="stroke: rgb(238, 238, 238); stroke-opacity: 1; stroke-width: 1px;"/><path class="xgrid crisp" transform="translate(754.65,0)" d="M0,50v470" style="stroke: rgb(238, 238, 238); stroke-opacity: 1; stroke-width: 1px;"/><path class="xgrid crisp" transform="translate(923.32,0)" d="M0,50v470" style="stroke: rgb(238, 238, 238); stroke-opacity: 1; stroke-width: 1px;"/></g><g class="y"><path class="ygrid crisp" transform="translate(0,513.51)" d="M80,0h859" style="stroke: rgb(238, 238, 238); stroke-opacity: 1; stroke-width: 1px;"/><path class="ygrid crisp" transform="translate(0,434.87)" d="M80,0h859" style="stroke: rgb(238, 238, 238); stroke-opacity: 1; stroke-width: 1px;"/><path class="ygrid crisp" transform="translate(0,277.59000000000003)" d="M80,0h859" style="stroke: rgb(238, 238, 238); stroke-opacity: 1; stroke-width: 1px;"/><path class="ygrid crisp" transform="translate(0,198.94)" d="M80,0h859" style="stroke: rgb(238, 238, 238); stroke-opacity: 1; stroke-width: 1px;"/><path class="ygrid crisp" transform="translate(0,120.3)" d="M80,0h859" style="stroke: rgb(238, 238, 238); stroke-opacity: 1; stroke-width: 1px;"/></g></g><g class="zerolinelayer"><path class="yzl zl crisp" transform="translate(0,356.23)" d="M80,0h859" style="stroke: rgb(68, 68, 68); stroke-opacity: 1; stroke-width: 1px;"/></g><path class="xlines-below"/><path class="ylines-below"/><g class="overlines-below"/><g class="xaxislayer-below"/><g class="yaxislayer-below"/><g class="overaxes-below"/><g class="plot" transform="translate(80, 50)" clip-path="url('#clipa53b5axyplot')"><g class="scatterlayer mlayer"><g class="trace scatter traceeee4510" style="stroke-miterlimit: 2; opacity: 1;"><g class="fills"/><g class="errorbars"/><g class="lines"><path class="js-line" style="vector-effect: non-scaling-stroke; fill: none; stroke: rgb(251, 147, 65); stroke-opacity: 1; stroke-width: 1.5px; opacity: 1;" d="M0,326.46L0.35,23.5L3.64,280.55L9.56,352.87L10.98,331.21L23.95,306.96L27.39,305.74L34.9,306.58L44.81,306.33L52.1,305.32L54.83,305.82L78.87,306.3L82.88,305.66L88.77,305.99L89.8,305.74L95.21,306.83L102.6,305.6L121.9,306.75L136.37,306.41L139.05,306.64L151.56,306.37L210.18,306.26L213.85,306.07L223.53,306.28L239.25,306.24L299.08,306.26L301.02,305.71L332.14,306.24L338.13,306.29L350.37,306.24L375.4,321.36L379.65,315.15L380.98,329.76L387.16,375.76L401.36,366.47L409.42,358.73L412.63,371.88L415.78,386.75L428.53,377.33L437.96,446.5L438.06,428.75L440.39,386.94L448.37,408.78L455.79,356.7L458.98,367.12L461.17,387.87L464.9,391.38L469.5,379.63L477.26,388.08L483.94,368.65L484.01,374.93L484.88,373.38L486.2,398.95L491.85,365.52L496.27,371.53L499.83,368.84L503.57,382.26L503.69,375.55L506.12,380.39L512.68,379L516.88,370.12L520.88,381.54L534.56,369.51L535.21,361.78L540.51,376.06L543.56,369.66L548.56,378.15L551.03,386.39L570.43,370.96L574.04,367.45L582.64,377.84L592.43,376.07L593.13,390.64L599.8,358.52L615.16,372.44L640.63,355.95L648.88,364.83L651.98,376.99L653.26,362.8L662.74,376.92L664.14,362.98L664.41,370.38L665.86,375.93L681.48,362.35L683.93,369.59L691.45,366.25L691.67,352.12L700.05,378.3L710.51,372.08L716.55,380.34L719.11,362.51L719.2,364.03L725.17,365.16L738.88,360.42L744.19,366.98L749.17,363.69L758.02,365.42L761.31,370.7L765.43,367.51L768.33,362.67L777.77,361.22L799.03,358.62L802.99,371.51L803.9,370.68L812.3,359.84"/></g><g class="points"/><g class="text"/></g><g class="trace scatter tracea85bbe0" style="stroke-miterlimit: 2; opacity: 1;"><g class="fills"/><g class="errorbars"/><g class="lines"><path class="js-line" style="vector-effect: non-scaling-stroke; fill: none; stroke: rgb(4, 108, 190); stroke-opacity: 1; stroke-width: 1.5px; opacity: 1;" d="M0,326.46L0.05,373.09L0.35,23.5L1.18,133.01L1.55,179.45L4.64,363.73L6.54,326.26L7.89,330.88L9.87,310.59L10.69,303.81L11.62,304.94L13.65,303.49L14.3,306.34L15.01,304.51L15.92,307.49L16.11,306.58L16.36,305.86L16.51,306.23L17.46,306.23L18.62,305.59L19.63,307.18L23.24,306.1L23.98,307.77L24.91,307.59L24.96,308.59L25.77,309.94L26.13,308.84L26.19,307.19L26.73,309.05L26.9,307.46L27,307.94L27.14,308.42L28.54,309.18L28.64,307.3L28.71,310.99L29.8,308.78L30.61,307.5L33.65,318.31L35.22,337.39L36.7,343.36L40.26,316.96L40.55,318.35L40.77,317.65L41.63,313.36L45.47,315.73L45.61,316.71L46.03,309.63L47.26,310.25L48.86,304.32L50.82,251.33L51.87,280.22L52.59,284.92L57.03,363.72L58.7,399.43L58.95,375.75L60.37,306.34L61.5,303.77L64.03,299.13L64.19,287.99L64.65,283.66L66.08,325.53L66.45,320.5L68.66,320.7L71.94,312.62L72.95,325.18L72.98,322.78L74.43,321.25L75.68,307.67L76.1,325.95L76.68,322.19L77.84,321.9L78.65,319.93L79.32,355.81L80.61,324.22L82.85,333.48L83.64,319.47L84.5,325.25L84.54,326.43L84.77,318.57L85.75,315.05L86.12,322.58L87.35,322.99L88.82,324.2L89.33,315.77L89.44,310.15L89.83,311.48L90.39,302.17L90.44,301.55L90.66,306.68L91.4,308.54L91.92,309.42L93.64,300.78L93.86,305.62L96.61,321.26L96.8,317.99L97.37,320.56L98.3,312.62L99.83,314.92L101.66,312.83L102.87,305.24L104.12,309.32L104.34,307.91L105.37,309.02L106.75,304.43L107.29,309.28L108.72,309.39L110,305.66L112.62,312.68L114.58,308.22L115.65,312.32L115.96,306.76L117.63,306.06L119.48,306.44L120.8,310.17L121.41,306.23L121.74,306.92L122.42,306.12L122.55,308.63L128.14,306.23L129.52,306.23"/></g><g class="points"/><g class="text"/></g><g class="trace scatter trace301607" style="stroke-miterlimit: 2; opacity: 1;"><g class="fills"/><g class="errorbars"/><g class="lines"/><g class="points"><path class="point" transform="translate(812.3,359.84)" style="opacity: 1; stroke-width: 0px; fill: rgb(251, 147, 65); fill-opacity: 1;" d="M3,0A3,3 0 1,1 0,-3A3,3 0 0,1 3,0Z"/></g><g class="text"/></g><g class="trace scatter tracebef8a6" style="stroke-miterlimit: 2; opacity: 1;"><g class="fills"/><g class="errorbars"/><g class="lines"/><g class="points"><path class="point" transform="translate(129.52,306.23)" style="opacity: 1; stroke-width: 0px; fill: rgb(4, 108, 190); fill-opacity: 1;" d="M3,0A3,3 0 1,1 0,-3A3,3 0 0,1 3,0Z"/></g><g class="text"/></g></g></g><g class="overplot"/><path class="xlines-above crisp" style="fill: none;" d="M0,0"/><path class="ylines-above crisp" style="fill: none;" d="M0,0"/><g class="overlines-above"/><g class="xaxislayer-above"><g class="xtick"><text text-anchor="middle" x="0" y="543" style="font-family: TOBESTRIPPEDOpen SansTOBESTRIPPED, verdana, arial, sans-serif; font-size: 12px; fill: rgb(32, 32, 32); fill-opacity: 1; white-space: pre;" transform="translate(79.98,0)">0</text></g><g class="xtick"><text text-anchor="middle" x="0" y="543" style="font-family: TOBESTRIPPEDOpen SansTOBESTRIPPED, verdana, arial, sans-serif; font-size: 12px; fill: rgb(32, 32, 32); fill-opacity: 1; white-space: pre;" transform="translate(248.65,0)">10k</text></g><g class="xtick"><text text-anchor="middle" x="0" y="543" style="font-family: TOBESTRIPPEDOpen SansTOBESTRIPPED, verdana, arial, sans-serif; font-size: 12px; fill: rgb(32, 32, 32); fill-opacity: 1; white-space: pre;" transform="translate(417.32,0)">20k</text></g><g class="xtick"><text text-anchor="middle" x="0" y="543" style="font-family: TOBESTRIPPEDOpen SansTOBESTRIPPED, verdana, arial, sans-serif; font-size: 12px; fill: rgb(32, 32, 32); fill-opacity: 1; white-space: pre;" transform="translate(585.98,0)">30k</text></g><g class="xtick"><text text-anchor="middle" x="0" y="543" style="font-family: TOBESTRIPPEDOpen SansTOBESTRIPPED, verdana, arial, sans-serif; font-size: 12px; fill: rgb(32, 32, 32); fill-opacity: 1; white-space: pre;" transform="translate(754.65,0)">40k</text></g><g class="xtick"><text text-anchor="middle" x="0" y="543" style="font-family: TOBESTRIPPEDOpen SansTOBESTRIPPED, verdana, arial, sans-serif; font-size: 12px; fill: rgb(32, 32, 32); fill-opacity: 1; white-space: pre;" transform="translate(923.32,0)">50k</text></g></g><g class="yaxislayer-above"><g class="ytick"><text text-anchor="end" x="69" y="4.199999999999999" style="font-family: TOBESTRIPPEDOpen SansTOBESTRIPPED, verdana, arial, sans-serif; font-size: 12px; fill: rgb(32, 32, 32); fill-opacity: 1; white-space: pre;" transform="translate(0,513.51)">−0.01</text></g><g class="ytick"><text text-anchor="end" x="69" y="4.199999999999999" style="font-family: TOBESTRIPPEDOpen SansTOBESTRIPPED, verdana, arial, sans-serif; font-size: 12px; fill: rgb(32, 32, 32); fill-opacity: 1; white-space: pre;" transform="translate(0,434.87)">−0.005</text></g><g class="ytick"><text text-anchor="end" x="69" y="4.199999999999999" style="font-family: TOBESTRIPPEDOpen SansTOBESTRIPPED, verdana, arial, sans-serif; font-size: 12px; fill: rgb(32, 32, 32); fill-opacity: 1; white-space: pre;" transform="translate(0,356.23)">0</text></g><g class="ytick"><text text-anchor="end" x="69" y="4.199999999999999" style="font-family: TOBESTRIPPEDOpen SansTOBESTRIPPED, verdana, arial, sans-serif; font-size: 12px; fill: rgb(32, 32, 32); fill-opacity: 1; white-space: pre;" transform="translate(0,277.59000000000003)">0.005</text></g><g class="ytick"><text text-anchor="end" x="69" y="4.199999999999999" style="font-family: TOBESTRIPPEDOpen SansTOBESTRIPPED, verdana, arial, sans-serif; font-size: 12px; fill: rgb(32, 32, 32); fill-opacity: 1; white-space: pre;" transform="translate(0,198.94)">0.01</text></g><g class="ytick"><text text-anchor="end" x="69" y="4.199999999999999" style="font-family: TOBESTRIPPEDOpen SansTOBESTRIPPED, verdana, arial, sans-serif; font-size: 12px; fill: rgb(32, 32, 32); fill-opacity: 1; white-space: pre;" transform="translate(0,120.3)">0.015</text></g></g><g class="overaxes-above"/></g></g><g class="polarlayer"/><g class="ternarylayer"/><g class="geolayer"/><g class="funnelarealayer"/><g class="pielayer"/><g class="treemaplayer"/><g class="sunburstlayer"/><g class="glimages"/><defs id="topdefs-a53b5a"><g class="clips"/><clipPath id="legenda53b5a"><rect width="232" height="58" x="0" y="0"/></clipPath></defs><g class="layer-above"><g class="imagelayer"/><g class="shapelayer"/></g><g class="infolayer"><g class="legend" pointer-events="all" transform="translate(956.1800000000001, 50)"><rect class="bg" shape-rendering="crispEdges" style="stroke: rgb(68, 68, 68); stroke-opacity: 1; fill: rgb(255, 255, 255); fill-opacity: 1; stroke-width: 0px;" width="232" height="58" x="0" y="0"/><g class="scrollbox" transform="translate(0, 0)" clip-path="url('#legenda53b5a')"><g class="groups" transform="translate(0, 0)"><g class="traces" style="opacity: 1;" transform="translate(0, 14.5)"><text class="legendtext" text-anchor="start" style="font-family: TOBESTRIPPEDOpen SansTOBESTRIPPED, verdana, arial, sans-serif; font-size: 12px; fill: rgb(68, 68, 68); fill-opacity: 1; white-space: pre;" x="40" y="4.680000000000001">Running PG Loss (PER_Beta=0.4)</text><g class="layers" style="opacity: 1;"><g class="legendfill"/><g class="legendlines"><path class="js-line" d="M5,0h30" style="fill: none; stroke: rgb(251, 147, 65); stroke-opacity: 1; stroke-width: 1.5px;"/></g><g class="legendsymbols"><g class="legendpoints"/></g></g><rect class="legendtoggle" style="fill: rgb(0, 0, 0); fill-opacity: 0;" x="0" y="-9.5" width="227" height="19"/></g></g><g class="groups" transform="translate(0, 10)"><g class="traces" style="opacity: 1;" transform="translate(0, 33.5)"><text class="legendtext" text-anchor="start" style="font-family: TOBESTRIPPEDOpen SansTOBESTRIPPED, verdana, arial, sans-serif; font-size: 12px; fill: rgb(68, 68, 68); fill-opacity: 1; white-space: pre;" x="40" y="4.680000000000001">Running PG Loss (PER_Beta=0.1)</text><g class="layers" style="opacity: 1;"><g class="legendfill"/><g class="legendlines"><path class="js-line" d="M5,0h30" style="fill: none; stroke: rgb(4, 108, 190); stroke-opacity: 1; stroke-width: 1.5px;"/></g><g class="legendsymbols"><g class="legendpoints"/></g></g><rect class="legendtoggle" style="fill: rgb(0, 0, 0); fill-opacity: 0;" x="0" y="-9.5" width="227" height="19"/></g></g></g><rect class="scrollbar" rx="20" ry="3" width="0" height="0" style="fill: rgb(128, 139, 164); fill-opacity: 1;" x="0" y="0"/></g><g class="g-gtitle"/><g class="g-xtitle"/><g class="g-ytitle"/></g></svg>