<svg class="main-svg" xmlns="http://www.w3.org/2000/svg" xmlns:xlink="http://www.w3.org/1999/xlink" width="1200" height="600" style="" viewBox="0 0 1200 600"><rect x="0" y="0" width="1200" height="600" style="fill: rgb(255, 255, 255); fill-opacity: 1;"/><defs id="defs-9ccee7"><g class="clips"><clipPath id="clip9ccee7xyplot" class="plotclip"><rect width="804" height="470"/></clipPath><clipPath class="axesclip" id="clip9ccee7x"><rect x="80" y="0" width="804" height="600"/></clipPath><clipPath class="axesclip" id="clip9ccee7y"><rect x="0" y="50" width="1200" height="470"/></clipPath><clipPath class="axesclip" id="clip9ccee7xy"><rect x="80" y="50" width="804" height="470"/></clipPath></g><g class="gradients"/></defs><g class="bglayer"/><g class="layer-below"><g class="imagelayer"/><g class="shapelayer"/></g><g class="cartesianlayer"><g class="subplot xy"><g class="layer-subplot"><g class="shapelayer"/><g class="imagelayer"/></g><g class="gridlayer"><g class="x"><path class="xgrid crisp" transform="translate(237.8,0)" d="M0,50v470" style="stroke: rgb(238, 238, 238); stroke-opacity: 1; stroke-width: 1px;"/><path class="xgrid crisp" transform="translate(395.62,0)" d="M0,50v470" style="stroke: rgb(238, 238, 238); stroke-opacity: 1; stroke-width: 1px;"/><path class="xgrid crisp" transform="translate(553.44,0)" d="M0,50v470" style="stroke: rgb(238, 238, 238); stroke-opacity: 1; stroke-width: 1px;"/><path class="xgrid crisp" transform="translate(711.25,0)" d="M0,50v470" style="stroke: rgb(238, 238, 238); stroke-opacity: 1; stroke-width: 1px;"/><path class="xgrid crisp" transform="translate(869.07,0)" d="M0,50v470" style="stroke: rgb(238, 238, 238); stroke-opacity: 1; stroke-width: 1px;"/></g><g class="y"><path class="ygrid crisp" transform="translate(0,487.13)" d="M80,0h804" style="stroke: rgb(238, 238, 238); stroke-opacity: 1; stroke-width: 1px;"/><path class="ygrid crisp" transform="translate(0,427.81)" d="M80,0h804" style="stroke: rgb(238, 238, 238); stroke-opacity: 1; stroke-width: 1px;"/><path class="ygrid crisp" transform="translate(0,368.49)" d="M80,0h804" style="stroke: rgb(238, 238, 238); stroke-opacity: 1; stroke-width: 1px;"/><path class="ygrid crisp" transform="translate(0,309.17)" d="M80,0h804" style="stroke: rgb(238, 238, 238); stroke-opacity: 1; stroke-width: 1px;"/><path class="ygrid crisp" transform="translate(0,249.85)" d="M80,0h804" style="stroke: rgb(238, 238, 238); stroke-opacity: 1; stroke-width: 1px;"/><path class="ygrid crisp" transform="translate(0,131.20999999999998)" d="M80,0h804" style="stroke: rgb(238, 238, 238); stroke-opacity: 1; stroke-width: 1px;"/><path class="ygrid crisp" transform="translate(0,71.89)" d="M80,0h804" style="stroke: rgb(238, 238, 238); stroke-opacity: 1; stroke-width: 1px;"/></g></g><g class="zerolinelayer"><path class="yzl zl crisp" transform="translate(0,190.53)" d="M80,0h804" style="stroke: rgb(68, 68, 68); stroke-opacity: 1; stroke-width: 1px;"/></g><path class="xlines-below"/><path class="ylines-below"/><g class="overlines-below"/><g class="xaxislayer-below"/><g class="yaxislayer-below"/><g class="overaxes-below"/><g class="plot" transform="translate(80, 50)" clip-path="url('#clip9ccee7xyplot')"><g class="scatterlayer mlayer"><g class="trace scatter trace0871340" style="stroke-miterlimit: 2; opacity: 1;"><g class="fills"/><g class="errorbars"/><g class="lines"><path class="js-line" style="vector-effect: non-scaling-stroke; fill: none; stroke: rgb(251, 147, 65); stroke-opacity: 1; stroke-width: 1.5px; opacity: 1;" d="M0,188.05L3.42,172.48L8.95,342.66L10.27,352.26L22.3,348.94L25.63,306.02L32.65,302.92L41.95,271.83L48.89,288.48L51.35,323.18L58.28,264.56L62.72,239.05L73.75,360.55L77.46,296.52L81.24,310.03L82.96,290.26L83.93,310.89L86.01,317.31L86.47,316.8L86.71,307.52L87.9,289.82L88.93,225.63L95.59,214.36L112.38,261.77L114.05,274.82L127.44,228.9L129.71,225.7L141.77,338.82L149.86,293.89L150.34,274.02L154.6,270.9L159.22,286.19L161.87,293.95L162.05,286.75L177.18,281.1L178.29,271.54L178.76,265.13L180.45,274.95L187.11,237.61L196.1,272.8L196.44,266.71L199.99,272.64L204.07,272.68L204.55,276.74L209.09,340.31L223.93,338.66L227.81,293.27L239.22,388.21L241.24,315.08L255.81,269.4L255.98,264.72L260.68,300.22L269.39,268.49L270.37,258.47L274.71,275.24L278.9,276.42L280.03,270.33L281.83,433.94L287.42,293.92L301.05,300.61L316.41,446.5L316.69,379.3L327.83,306.06L351.27,184.8L355.25,174.75L356.46,148.53L361.07,50.32L361.78,52.1L362.24,49.5L375.45,36.15L383.13,33.95L386.2,34.41L389.12,33.42L400.98,32.28L409.82,34.28L411.92,33.7L419.46,30.27L426.41,31.86L429.26,32.44L431.46,31.9L434.93,28.46L439.21,30.28L446.23,30.73L452.59,29.06L453.28,29.09L454.86,27.77L460.12,29.05L464.17,28.41L467.47,28.07L471.02,28.89L471.18,28.73L473.33,28.89L479.51,30.75L483.55,28.11L487.1,29.4L499.78,27.53L500.49,27.21L505.49,30.36L508.14,28.86L513.05,27.89L515.45,27.25L533.39,26.34L536.52,26.79L544.71,26.72L551.87,28.1L554.05,27.54L554.71,26.6L560.95,27.97L575.18,27.94L598.93,26.33L610.79,27.51L619.56,26.71L621.04,27.33L622.43,27.18L639.45,26.23L646.36,26.76L646.52,26.64L654.14,26.55L671.75,27.1L695.12,28.04L711.55,26.26L715.37,27.21L718.05,26.85L747.63,26.13L760.05,27.25"/></g><g class="points"/><g class="text"/></g><g class="trace scatter traced3e96b0" style="stroke-miterlimit: 2; opacity: 1;"><g class="fills"/><g class="errorbars"/><g class="lines"><path class="js-line" style="vector-effect: non-scaling-stroke; fill: none; stroke: rgb(4, 108, 190); stroke-opacity: 1; stroke-width: 1.5px; opacity: 1;" d="M0,188.05L0.05,206.76L1.1,191.03L1.45,181.33L4.34,202.26L9.17,307.55L9.23,307.06L10.01,307.26L10.87,307.22L12.77,275.05L13.38,274L14.05,275.38L15.07,265.18L15.31,271.95L15.45,269.45L16.33,298.95L17.42,281.83L18.37,281.62L21.75,271.94L22.44,277.51L23.31,282.84L23.36,281.1L24.11,279.22L24.45,279.59L24.51,277.33L25.01,279.06L25.17,273.49L25.39,267.41L26.7,293.19L26.8,296.63L26.86,292.71L27.89,298.79L28.64,292.32L31.48,253.23L31.94,254.01L32.07,259.08L32.75,270.05L32.95,267.89L34.34,259.97L35.56,257.5L36.53,274.77L38.6,256.58L38.73,258.8L38.95,257.52L42.55,312.34L43.07,303.53L46.67,262.6L47.55,211.92L48.53,197.35L49.21,163.37L53.36,144.93L55.2,218.85L56.14,161.36L57.54,116.2L59.91,79.36L60.49,72.9L61.83,84.38L62.18,78.41L64.25,62.52L67.31,85.75L68.26,75.03L68.29,74.43L69.64,67.07L70.81,67.87L71.21,75.94L71.74,68.62L72.83,75.21L73.59,69.44L74.22,73.85L75.42,64.49L77.52,70.93L78.26,72.26L79.07,69.36L80.23,61.55L80.58,61.83L81.73,65.52L83.11,63.26L83.69,59.81L83.93,68.7L84.05,79.88L84.62,70L84.83,67.91L87.83,57.16L89.02,54.84L90.4,61.52L90.57,59.6L91.11,54.79L91.98,59.48L93.41,54.06L95.12,56.7L95.95,50.63L96.25,52.11L97.42,54L97.63,52.27L98.59,54.61L99.88,48.93L100.39,58.05L102.93,49.06L105.37,45.79L107.21,46.46L108.22,45.18L111.8,38.19L112.07,38.62L113.03,45.52L113.6,49.2L119.89,74.1L120.08,83.26L120.78,182.71L121.19,132.15"/></g><g class="points"/><g class="text"/></g><g class="trace scatter traced1c42d" style="stroke-miterlimit: 2; opacity: 1;"><g class="fills"/><g class="errorbars"/><g class="lines"/><g class="points"><path class="point" transform="translate(760.05,27.25)" style="opacity: 1; stroke-width: 0px; fill: rgb(251, 147, 65); fill-opacity: 1;" d="M3,0A3,3 0 1,1 0,-3A3,3 0 0,1 3,0Z"/></g><g class="text"/></g><g class="trace scatter traced78563" style="stroke-miterlimit: 2; opacity: 1;"><g class="fills"/><g class="errorbars"/><g class="lines"/><g class="points"><path class="point" transform="translate(121.19,132.15)" style="opacity: 1; stroke-width: 0px; fill: rgb(4, 108, 190); fill-opacity: 1;" d="M3,0A3,3 0 1,1 0,-3A3,3 0 0,1 3,0Z"/></g><g class="text"/></g></g></g><g class="overplot"/><path class="xlines-above crisp" style="fill: none;" d="M0,0"/><path class="ylines-above crisp" style="fill: none;" d="M0,0"/><g class="overlines-above"/><g class="xaxislayer-above"><g class="xtick"><text text-anchor="middle" x="0" y="543" style="font-family: TOBESTRIPPEDOpen SansTOBESTRIPPED, verdana, arial, sans-serif; font-size: 12px; fill: rgb(32, 32, 32); fill-opacity: 1; white-space: pre;" transform="translate(79.98,0)">0</text></g><g class="xtick"><text text-anchor="middle" x="0" y="543" style="font-family: TOBESTRIPPEDOpen SansTOBESTRIPPED, verdana, arial, sans-serif; font-size: 12px; fill: rgb(32, 32, 32); fill-opacity: 1; white-space: pre;" transform="translate(237.8,0)">10k</text></g><g class="xtick"><text text-anchor="middle" x="0" y="543" style="font-family: TOBESTRIPPEDOpen SansTOBESTRIPPED, verdana, arial, sans-serif; font-size: 12px; fill: rgb(32, 32, 32); fill-opacity: 1; white-space: pre;" transform="translate(395.62,0)">20k</text></g><g class="xtick"><text text-anchor="middle" x="0" y="543" style="font-family: TOBESTRIPPEDOpen SansTOBESTRIPPED, verdana, arial, sans-serif; font-size: 12px; fill: rgb(32, 32, 32); fill-opacity: 1; white-space: pre;" transform="translate(553.44,0)">30k</text></g><g class="xtick"><text text-anchor="middle" x="0" y="543" style="font-family: TOBESTRIPPEDOpen SansTOBESTRIPPED, verdana, arial, sans-serif; font-size: 12px; fill: rgb(32, 32, 32); fill-opacity: 1; white-space: pre;" transform="translate(711.25,0)">40k</text></g><g class="xtick"><text text-anchor="middle" x="0" y="543" style="font-family: TOBESTRIPPEDOpen SansTOBESTRIPPED, verdana, arial, sans-serif; font-size: 12px; fill: rgb(32, 32, 32); fill-opacity: 1; white-space: pre;" transform="translate(869.07,0)">50k</text></g></g><g class="yaxislayer-above"><g class="ytick"><text text-anchor="end" x="69" y="4.199999999999999" style="font-family: TOBESTRIPPEDOpen SansTOBESTRIPPED, verdana, arial, sans-serif; font-size: 12px; fill: rgb(32, 32, 32); fill-opacity: 1; white-space: pre;" transform="translate(0,487.13)">−2.5</text></g><g class="ytick"><text text-anchor="end" x="69" y="4.199999999999999" style="font-family: TOBESTRIPPEDOpen SansTOBESTRIPPED, verdana, arial, sans-serif; font-size: 12px; fill: rgb(32, 32, 32); fill-opacity: 1; white-space: pre;" transform="translate(0,427.81)">−2</text></g><g class="ytick"><text text-anchor="end" x="69" y="4.199999999999999" style="font-family: TOBESTRIPPEDOpen SansTOBESTRIPPED, verdana, arial, sans-serif; font-size: 12px; fill: rgb(32, 32, 32); fill-opacity: 1; white-space: pre;" transform="translate(0,368.49)">−1.5</text></g><g class="ytick"><text text-anchor="end" x="69" y="4.199999999999999" style="font-family: TOBESTRIPPEDOpen SansTOBESTRIPPED, verdana, arial, sans-serif; font-size: 12px; fill: rgb(32, 32, 32); fill-opacity: 1; white-space: pre;" transform="translate(0,309.17)">−1</text></g><g class="ytick"><text text-anchor="end" x="69" y="4.199999999999999" style="font-family: TOBESTRIPPEDOpen SansTOBESTRIPPED, verdana, arial, sans-serif; font-size: 12px; fill: rgb(32, 32, 32); fill-opacity: 1; white-space: pre;" transform="translate(0,249.85)">−0.5</text></g><g class="ytick"><text text-anchor="end" x="69" y="4.199999999999999" style="font-family: TOBESTRIPPEDOpen SansTOBESTRIPPED, verdana, arial, sans-serif; font-size: 12px; fill: rgb(32, 32, 32); fill-opacity: 1; white-space: pre;" transform="translate(0,190.53)">0</text></g><g class="ytick"><text text-anchor="end" x="69" y="4.199999999999999" style="font-family: TOBESTRIPPEDOpen SansTOBESTRIPPED, verdana, arial, sans-serif; font-size: 12px; fill: rgb(32, 32, 32); fill-opacity: 1; white-space: pre;" transform="translate(0,131.20999999999998)">0.5</text></g><g class="ytick"><text text-anchor="end" x="69" y="4.199999999999999" style="font-family: TOBESTRIPPEDOpen SansTOBESTRIPPED, verdana, arial, sans-serif; font-size: 12px; fill: rgb(32, 32, 32); fill-opacity: 1; white-space: pre;" transform="translate(0,71.89)">1</text></g></g><g class="overaxes-above"/></g></g><g class="polarlayer"/><g class="ternarylayer"/><g class="geolayer"/><g class="funnelarealayer"/><g class="pielayer"/><g class="treemaplayer"/><g class="sunburstlayer"/><g class="glimages"/><defs id="topdefs-9ccee7"><g class="clips"/><clipPath id="legend9ccee7"><rect width="288" height="58" x="0" y="0"/></clipPath></defs><g class="layer-above"><g class="imagelayer"/><g class="shapelayer"/></g><g class="infolayer"><g class="legend" pointer-events="all" transform="translate(900.08, 50)"><rect class="bg" shape-rendering="crispEdges" style="stroke: rgb(68, 68, 68); stroke-opacity: 1; fill: rgb(255, 255, 255); fill-opacity: 1; stroke-width: 0px;" width="288" height="58" x="0" y="0"/><g class="scrollbox" transform="translate(0, 0)" clip-path="url('#legend9ccee7')"><g class="groups" transform="translate(0, 0)"><g class="traces" style="opacity: 1;" transform="translate(0, 14.5)"><text class="legendtext" text-anchor="start" style="font-family: TOBESTRIPPEDOpen SansTOBESTRIPPED, verdana, arial, sans-serif; font-size: 12px; fill: rgb(68, 68, 68); fill-opacity: 1; white-space: pre;" x="40" y="4.680000000000001">Running Explained variance (PER_Beta=0.4)</text><g class="layers" style="opacity: 1;"><g class="legendfill"/><g class="legendlines"><path class="js-line" d="M5,0h30" style="fill: none; stroke: rgb(251, 147, 65); stroke-opacity: 1; stroke-width: 1.5px;"/></g><g class="legendsymbols"><g class="legendpoints"/></g></g><rect class="legendtoggle" style="fill: rgb(0, 0, 0); fill-opacity: 0;" x="0" y="-9.5" width="282.3333282470703" height="19"/></g></g><g class="groups" transform="translate(0, 10)"><g class="traces" style="opacity: 1;" transform="translate(0, 33.5)"><text class="legendtext" text-anchor="start" style="font-family: TOBESTRIPPEDOpen SansTOBESTRIPPED, verdana, arial, sans-serif; font-size: 12px; fill: rgb(68, 68, 68); fill-opacity: 1; white-space: pre;" x="40" y="4.680000000000001">Running Explained variance (PER_Beta=0.1)</text><g class="layers" style="opacity: 1;"><g class="legendfill"/><g class="legendlines"><path class="js-line" d="M5,0h30" style="fill: none; stroke: rgb(4, 108, 190); stroke-opacity: 1; stroke-width: 1.5px;"/></g><g class="legendsymbols"><g class="legendpoints"/></g></g><rect class="legendtoggle" style="fill: rgb(0, 0, 0); fill-opacity: 0;" x="0" y="-9.5" width="282.3333282470703" height="19"/></g></g></g><rect class="scrollbar" rx="20" ry="3" width="0" height="0" style="fill: rgb(128, 139, 164); fill-opacity: 1;" x="0" y="0"/></g><g class="g-gtitle"/><g class="g-xtitle"/><g class="g-ytitle"/></g></svg>