<svg class="main-svg" xmlns="http://www.w3.org/2000/svg" xmlns:xlink="http://www.w3.org/1999/xlink" width="1200" height="600" style="" viewBox="0 0 1200 600"><rect x="0" y="0" width="1200" height="600" style="fill: rgb(255, 255, 255); fill-opacity: 1;"/><defs id="defs-d5231a"><g class="clips"><clipPath id="clipd5231axyplot" class="plotclip"><rect width="863" height="470"/></clipPath><clipPath class="axesclip" id="clipd5231ax"><rect x="80" y="0" width="863" height="600"/></clipPath><clipPath class="axesclip" id="clipd5231ay"><rect x="0" y="50" width="1200" height="470"/></clipPath><clipPath class="axesclip" id="clipd5231axy"><rect x="80" y="50" width="863" height="470"/></clipPath></g><g class="gradients"/></defs><g class="bglayer"/><g class="layer-below"><g class="imagelayer"/><g class="shapelayer"/></g><g class="cartesianlayer"><g class="subplot xy"><g class="layer-subplot"><g class="shapelayer"/><g class="imagelayer"/></g><g class="gridlayer"><g class="x"><path class="xgrid crisp" transform="translate(249.44,0)" d="M0,50v470" style="stroke: rgb(238, 238, 238); stroke-opacity: 1; stroke-width: 1px;"/><path class="xgrid crisp" transform="translate(418.9,0)" d="M0,50v470" style="stroke: rgb(238, 238, 238); stroke-opacity: 1; stroke-width: 1px;"/><path class="xgrid crisp" transform="translate(588.35,0)" d="M0,50v470" style="stroke: rgb(238, 238, 238); stroke-opacity: 1; stroke-width: 1px;"/><path class="xgrid crisp" transform="translate(757.81,0)" d="M0,50v470" style="stroke: rgb(238, 238, 238); stroke-opacity: 1; stroke-width: 1px;"/><path class="xgrid crisp" transform="translate(927.26,0)" d="M0,50v470" style="stroke: rgb(238, 238, 238); stroke-opacity: 1; stroke-width: 1px;"/></g><g class="y"><path class="ygrid crisp" transform="translate(0,416.42)" d="M80,0h863" style="stroke: rgb(238, 238, 238); stroke-opacity: 1; stroke-width: 1px;"/><path class="ygrid crisp" transform="translate(0,340.09)" d="M80,0h863" style="stroke: rgb(238, 238, 238); stroke-opacity: 1; stroke-width: 1px;"/><path class="ygrid crisp" transform="translate(0,263.76)" d="M80,0h863" style="stroke: rgb(238, 238, 238); stroke-opacity: 1; stroke-width: 1px;"/><path class="ygrid crisp" transform="translate(0,187.43)" d="M80,0h863" style="stroke: rgb(238, 238, 238); stroke-opacity: 1; stroke-width: 1px;"/><path class="ygrid crisp" transform="translate(0,111.1)" d="M80,0h863" style="stroke: rgb(238, 238, 238); stroke-opacity: 1; stroke-width: 1px;"/></g></g><g class="zerolinelayer"><path class="yzl zl crisp" transform="translate(0,492.75)" d="M80,0h863" style="stroke: rgb(68, 68, 68); stroke-opacity: 1; stroke-width: 1px;"/></g><path class="xlines-below"/><path class="ylines-below"/><g class="overlines-below"/><g class="xaxislayer-below"/><g class="yaxislayer-below"/><g class="overaxes-below"/><g class="plot" transform="translate(80, 50)" clip-path="url('#clipd5231axyplot')"><g class="scatterlayer mlayer"><g class="trace scatter tracee5dbb00" style="stroke-miterlimit: 2; opacity: 1;"><g class="fills"/><g class="errorbars"/><g class="lines"><path class="js-line" style="vector-effect: non-scaling-stroke; fill: none; stroke: rgb(251, 147, 65); stroke-opacity: 1; stroke-width: 1.5px; opacity: 1;" d="M0,438.68L3.68,174.54L9.63,55.82L11.12,38.9L24.06,26.28L27.42,25.52L35.04,25.35L55.09,24.21L62.48,24.48L67.29,24.06L79.22,23.8L83.25,24.41L87.27,23.89L93.15,23.67L94.51,24.56L95.61,24.06L103.08,23.75L122.6,24.28L137.11,23.73L166.27,23.68L171.37,23.64L224.6,23.74L240.44,23.62L279.89,23.68L289.13,23.76L299.28,23.6L300.63,23.54L302.55,23.96L308.53,23.56L353.3,23.5L377.24,49.15L381.48,50.72L382.78,67.64L387.78,138.17L388.58,135.42L389.09,132.18L403.34,155.03L411.52,163.79L414.85,163.16L417.95,168.43L430.71,168.74L440.11,180.2L442.45,192.16L450.58,196.88L457.95,205.37L461.17,191.27L463.38,193.87L467.19,197.28L471.73,192.35L479.54,189.78L486.37,200.64L486.59,198.59L487.36,206.67L488.68,198.61L494.17,213.74L494.24,214.96L498.71,209.69L502.3,204.41L506.05,213.19L506.11,211.6L508.59,203.23L515.21,202.44L519.55,207.4L523.45,206.66L537.18,209.11L537.77,214.36L543.09,205.77L546.41,202.95L551.26,205.57L553.66,201.34L573.1,213.24L576.73,203.07L585.5,211.78L593.13,220.87L595.28,211.25L596.08,205.32L602.72,209.81L618.24,221.22L643.68,208.81L651.74,212.99L655.03,217.48L656.32,212.71L665.84,219.39L667.25,216.91L667.52,219.76L668.98,212.99L684.67,223.76L687.13,221.15L694.68,217.08L694.91,218.25L703.33,211.28L713.83,223.73L719.9,216.23L722.56,219.49L728.56,226.13L747.67,221.64L752.67,226.78L764.87,218.13L769.01,223.04L771.92,219.5L781.41,219.95L806.75,217.53L807.66,220.55L816.1,230.39"/></g><g class="points"/><g class="text"/></g><g class="trace scatter trace31d9350" style="stroke-miterlimit: 2; opacity: 1;"><g class="fills"/><g class="errorbars"/><g class="lines"><path class="js-line" style="vector-effect: non-scaling-stroke; fill: none; stroke: rgb(4, 108, 190); stroke-opacity: 1; stroke-width: 1.5px; opacity: 1;" d="M0,438.68L0.05,426.59L1.19,356.85L1.56,322.29L4.66,121.61L6.57,73.21L7.93,56.45L9.91,39.88L10.74,36.82L11.68,33.64L13.71,31.1L16.59,29.67L17.54,29.65L24.1,29.45L25.03,30.2L28.84,32.19L29.94,31.83L30.76,32.58L33.81,42.76L35.16,40.11L35.38,41.18L36.87,45.39L38.18,51.88L39.23,54.03L40.35,58.16L40.45,57.84L40.74,58.25L40.96,61.89L41.45,62.52L41.58,62.16L41.82,61.41L47.48,69.85L49.09,76.81L51.06,142.44L52.11,144.56L52.84,161.43L57.29,162.71L59.22,171.69L59.28,169.41L61.78,280.53L64.33,329.66L64.95,319.59L66.39,334.11L66.77,329.2L68.99,347.63L73.32,387.39L74.78,381.53L76.03,387.56L76.46,380.84L77.03,389.02L78.2,391.55L79.02,391.27L79.7,383.09L80.46,380.79L80.98,381.76L84.03,396.59L84.9,389.88L85.17,393.13L86.15,399.01L87.76,404.41L89.24,404.94L89.86,406.85L90.12,403.99L90.25,402.24L90.81,405.09L91.83,408.57L91.95,408.79L92.35,411.18L94.08,411.02L94.3,411.72L95.59,411.37L97.25,415.78L97.83,416.99L98.76,416.21L100.3,417.93L105.86,426.16L107.25,425.3L107.79,424.31L109.23,424.05L110.52,428.49L113.15,431.79L115.11,430.34L116.2,430.59L116.47,442.75L116.53,442.52L118.18,436.42L120.33,435.79L121.36,432.35L122.04,442.75L122.31,442.09L122.99,442.52L123.13,441.58L128.74,442.75L130.13,442.75"/></g><g class="points"/><g class="text"/></g><g class="trace scatter traceb1e9ed" style="stroke-miterlimit: 2; opacity: 1;"><g class="fills"/><g class="errorbars"/><g class="lines"/><g class="points"><path class="point" transform="translate(816.1,230.39)" style="opacity: 1; stroke-width: 0px; fill: rgb(251, 147, 65); fill-opacity: 1;" d="M3,0A3,3 0 1,1 0,-3A3,3 0 0,1 3,0Z"/></g><g class="text"/></g><g class="trace scatter trace84c1da" style="stroke-miterlimit: 2; opacity: 1;"><g class="fills"/><g class="errorbars"/><g class="lines"/><g class="points"><path class="point" transform="translate(130.13,442.75)" style="opacity: 1; stroke-width: 0px; fill: rgb(4, 108, 190); fill-opacity: 1;" d="M3,0A3,3 0 1,1 0,-3A3,3 0 0,1 3,0Z"/></g><g class="text"/></g></g></g><g class="overplot"/><path class="xlines-above crisp" style="fill: none;" d="M0,0"/><path class="ylines-above crisp" style="fill: none;" d="M0,0"/><g class="overlines-above"/><g class="xaxislayer-above"><g class="xtick"><text text-anchor="middle" x="0" y="543" style="font-family: TOBESTRIPPEDOpen SansTOBESTRIPPED, verdana, arial, sans-serif; font-size: 12px; fill: rgb(32, 32, 32); fill-opacity: 1; white-space: pre;" transform="translate(79.98,0)">0</text></g><g class="xtick"><text text-anchor="middle" x="0" y="543" style="font-family: TOBESTRIPPEDOpen SansTOBESTRIPPED, verdana, arial, sans-serif; font-size: 12px; fill: rgb(32, 32, 32); fill-opacity: 1; white-space: pre;" transform="translate(249.44,0)">10k</text></g><g class="xtick"><text text-anchor="middle" x="0" y="543" style="font-family: TOBESTRIPPEDOpen SansTOBESTRIPPED, verdana, arial, sans-serif; font-size: 12px; fill: rgb(32, 32, 32); fill-opacity: 1; white-space: pre;" transform="translate(418.9,0)">20k</text></g><g class="xtick"><text text-anchor="middle" x="0" y="543" style="font-family: TOBESTRIPPEDOpen SansTOBESTRIPPED, verdana, arial, sans-serif; font-size: 12px; fill: rgb(32, 32, 32); fill-opacity: 1; white-space: pre;" transform="translate(588.35,0)">30k</text></g><g class="xtick"><text text-anchor="middle" x="0" y="543" style="font-family: TOBESTRIPPEDOpen SansTOBESTRIPPED, verdana, arial, sans-serif; font-size: 12px; fill: rgb(32, 32, 32); fill-opacity: 1; white-space: pre;" transform="translate(757.81,0)">40k</text></g><g class="xtick"><text text-anchor="middle" x="0" y="543" style="font-family: TOBESTRIPPEDOpen SansTOBESTRIPPED, verdana, arial, sans-serif; font-size: 12px; fill: rgb(32, 32, 32); fill-opacity: 1; white-space: pre;" transform="translate(927.26,0)">50k</text></g></g><g class="yaxislayer-above"><g class="ytick"><text text-anchor="end" x="69" y="4.199999999999999" style="font-family: TOBESTRIPPEDOpen SansTOBESTRIPPED, verdana, arial, sans-serif; font-size: 12px; fill: rgb(32, 32, 32); fill-opacity: 1; white-space: pre;" transform="translate(0,492.75)">0</text></g><g class="ytick"><text text-anchor="end" x="69" y="4.199999999999999" style="font-family: TOBESTRIPPEDOpen SansTOBESTRIPPED, verdana, arial, sans-serif; font-size: 12px; fill: rgb(32, 32, 32); fill-opacity: 1; white-space: pre;" transform="translate(0,416.42)">0.2</text></g><g class="ytick"><text text-anchor="end" x="69" y="4.199999999999999" style="font-family: TOBESTRIPPEDOpen SansTOBESTRIPPED, verdana, arial, sans-serif; font-size: 12px; fill: rgb(32, 32, 32); fill-opacity: 1; white-space: pre;" transform="translate(0,340.09)">0.4</text></g><g class="ytick"><text text-anchor="end" x="69" y="4.199999999999999" style="font-family: TOBESTRIPPEDOpen SansTOBESTRIPPED, verdana, arial, sans-serif; font-size: 12px; fill: rgb(32, 32, 32); fill-opacity: 1; white-space: pre;" transform="translate(0,263.76)">0.6</text></g><g class="ytick"><text text-anchor="end" x="69" y="4.199999999999999" style="font-family: TOBESTRIPPEDOpen SansTOBESTRIPPED, verdana, arial, sans-serif; font-size: 12px; fill: rgb(32, 32, 32); fill-opacity: 1; white-space: pre;" transform="translate(0,187.43)">0.8</text></g><g class="ytick"><text text-anchor="end" x="69" y="4.199999999999999" style="font-family: TOBESTRIPPEDOpen SansTOBESTRIPPED, verdana, arial, sans-serif; font-size: 12px; fill: rgb(32, 32, 32); fill-opacity: 1; white-space: pre;" transform="translate(0,111.1)">1</text></g></g><g class="overaxes-above"/></g></g><g class="polarlayer"/><g class="ternarylayer"/><g class="geolayer"/><g class="funnelarealayer"/><g class="pielayer"/><g class="treemaplayer"/><g class="sunburstlayer"/><g class="glimages"/><defs id="topdefs-d5231a"><g class="clips"/><clipPath id="legendd5231a"><rect width="228" height="58" x="0" y="0"/></clipPath></defs><g class="layer-above"><g class="imagelayer"/><g class="shapelayer"/></g><g class="infolayer"><g class="legend" pointer-events="all" transform="translate(960.26, 50)"><rect class="bg" shape-rendering="crispEdges" style="stroke: rgb(68, 68, 68); stroke-opacity: 1; fill: rgb(255, 255, 255); fill-opacity: 1; stroke-width: 0px;" width="228" height="58" x="0" y="0"/><g class="scrollbox" transform="translate(0, 0)" clip-path="url('#legendd5231a')"><g class="groups" transform="translate(0, 0)"><g class="traces" style="opacity: 1;" transform="translate(0, 14.5)"><text class="legendtext" text-anchor="start" style="font-family: TOBESTRIPPEDOpen SansTOBESTRIPPED, verdana, arial, sans-serif; font-size: 12px; fill: rgb(68, 68, 68); fill-opacity: 1; white-space: pre;" x="40" y="4.680000000000001">Running Entropy (PER_Beta=0.4)</text><g class="layers" style="opacity: 1;"><g class="legendfill"/><g class="legendlines"><path class="js-line" d="M5,0h30" style="fill: none; stroke: rgb(251, 147, 65); stroke-opacity: 1; stroke-width: 1.5px;"/></g><g class="legendsymbols"><g class="legendpoints"/></g></g><rect class="legendtoggle" style="fill: rgb(0, 0, 0); fill-opacity: 0;" x="0" y="-9.5" width="222.3333282470703" height="19"/></g></g><g class="groups" transform="translate(0, 10)"><g class="traces" style="opacity: 1;" transform="translate(0, 33.5)"><text class="legendtext" text-anchor="start" style="font-family: TOBESTRIPPEDOpen SansTOBESTRIPPED, verdana, arial, sans-serif; font-size: 12px; fill: rgb(68, 68, 68); fill-opacity: 1; white-space: pre;" x="40" y="4.680000000000001">Running Entropy (PER_Beta=0.1)</text><g class="layers" style="opacity: 1;"><g class="legendfill"/><g class="legendlines"><path class="js-line" d="M5,0h30" style="fill: none; stroke: rgb(4, 108, 190); stroke-opacity: 1; stroke-width: 1.5px;"/></g><g class="legendsymbols"><g class="legendpoints"/></g></g><rect class="legendtoggle" style="fill: rgb(0, 0, 0); fill-opacity: 0;" x="0" y="-9.5" width="222.3333282470703" height="19"/></g></g></g><rect class="scrollbar" rx="20" ry="3" width="0" height="0" style="fill: rgb(128, 139, 164); fill-opacity: 1;" x="0" y="0"/></g><g class="g-gtitle"/><g class="g-xtitle"/><g class="g-ytitle"/></g></svg>