<svg class="main-svg" xmlns="http://www.w3.org/2000/svg" xmlns:xlink="http://www.w3.org/1999/xlink" width="1200" height="600" style="" viewBox="0 0 1200 600"><rect x="0" y="0" width="1200" height="600" style="fill: rgb(255, 255, 255); fill-opacity: 1;"/><defs id="defs-89e91a"><g class="clips"><clipPath id="clip89e91axyplot" class="plotclip"><rect width="846" height="470"/></clipPath><clipPath class="axesclip" id="clip89e91ax"><rect x="80" y="0" width="846" height="600"/></clipPath><clipPath class="axesclip" id="clip89e91ay"><rect x="0" y="50" width="1200" height="470"/></clipPath><clipPath class="axesclip" id="clip89e91axy"><rect x="80" y="50" width="846" height="470"/></clipPath></g><g class="gradients"/></defs><g class="bglayer"/><g class="layer-below"><g class="imagelayer"/><g class="shapelayer"/></g><g class="cartesianlayer"><g class="subplot xy"><g class="layer-subplot"><g class="shapelayer"/><g class="imagelayer"/></g><g class="gridlayer"><g class="x"><path class="xgrid crisp" transform="translate(246.09,0)" d="M0,50v470" style="stroke: rgb(238, 238, 238); stroke-opacity: 1; stroke-width: 1px;"/><path class="xgrid crisp" transform="translate(412.19,0)" d="M0,50v470" style="stroke: rgb(238, 238, 238); stroke-opacity: 1; stroke-width: 1px;"/><path class="xgrid crisp" transform="translate(578.29,0)" d="M0,50v470" style="stroke: rgb(238, 238, 238); stroke-opacity: 1; stroke-width: 1px;"/><path class="xgrid crisp" transform="translate(744.39,0)" d="M0,50v470" style="stroke: rgb(238, 238, 238); stroke-opacity: 1; stroke-width: 1px;"/><path class="xgrid crisp" transform="translate(910.5,0)" d="M0,50v470" style="stroke: rgb(238, 238, 238); stroke-opacity: 1; stroke-width: 1px;"/></g><g class="y"><path class="ygrid crisp" transform="translate(0,395.12)" d="M80,0h846" style="stroke: rgb(238, 238, 238); stroke-opacity: 1; stroke-width: 1px;"/><path class="ygrid crisp" transform="translate(0,293.73)" d="M80,0h846" style="stroke: rgb(238, 238, 238); stroke-opacity: 1; stroke-width: 1px;"/><path class="ygrid crisp" transform="translate(0,192.34)" d="M80,0h846" style="stroke: rgb(238, 238, 238); stroke-opacity: 1; stroke-width: 1px;"/><path class="ygrid crisp" transform="translate(0,90.96000000000001)" d="M80,0h846" style="stroke: rgb(238, 238, 238); stroke-opacity: 1; stroke-width: 1px;"/></g></g><g class="zerolinelayer"><path class="yzl zl crisp" transform="translate(0,496.5)" d="M80,0h846" style="stroke: rgb(68, 68, 68); stroke-opacity: 1; stroke-width: 1px;"/></g><path class="xlines-below"/><path class="ylines-below"/><g class="overlines-below"/><g class="xaxislayer-below"/><g class="yaxislayer-below"/><g class="overaxes-below"/><g class="plot" transform="translate(80, 50)" clip-path="url('#clip89e91axyplot')"><g class="scatterlayer mlayer"><g class="trace scatter tracefd38d20" style="stroke-miterlimit: 2; opacity: 1;"><g class="fills"/><g class="errorbars"/><g class="lines"><path class="js-line" style="vector-effect: non-scaling-stroke; fill: none; stroke: rgb(251, 147, 65); stroke-opacity: 1; stroke-width: 1.5px; opacity: 1;" d="M0,442.47L5.03,54.52L9.43,368.29L10.9,412.34L23.59,445.61L26.88,445.97L34.35,446.02L91.31,446.48L92.64,446.37L101.04,446.47L118.35,446.44L345.08,446.5L369.78,392L373.93,391.87L375.21,339.16L380.89,322.1L381.39,328.39L406.64,384.52L409.68,374.94L422.18,372.99L431.4,353.97L433.69,366.94L441.67,386.67L448.89,382.08L452.05,376.45L454.21,389.78L457.94,399.37L462.4,378.24L470.05,388.31L476.75,394.38L476.96,392.91L477.71,399.08L479.01,396.65L484.45,393.62L488.84,398.87L492.36,394.02L496.03,387.44L496.1,388.04L498.52,395.44L505.02,387.1L509.27,394.64L513.09,382.36L526.55,402.42L527.13,400.68L532.34,394.28L535.6,401.38L540.35,397.54L542.71,405.48L561.76,407.28L565.31,402.35L573.92,405.62L581.39,395.82L583.5,407.95L584.28,396.91L590.79,404.6L606.01,404.31L630.94,415.47L638.85,404.36L642.07,409.57L643.33,408.83L652.67,402.1L654.05,403.58L654.31,405.33L655.74,406.26L671.12,412.72L673.53,404.96L680.94,401.42L681.15,401.63L689.41,411.62L699.71,397.84L705.65,410.33L708.18,411.65L708.26,411.39L714.14,415.65L727.65,410.71L732.88,410.6L737.78,411.1L746.5,419.35L749.74,411.61L753.79,412.07L756.65,415.44L765.95,413.41L786.88,414.63L790.78,413.76L791.68,407.77L799.95,407.13"/></g><g class="points"/><g class="text"/></g><g class="trace scatter trace1a4b820" style="stroke-miterlimit: 2; opacity: 1;"><g class="fills"/><g class="errorbars"/><g class="lines"><path class="js-line" style="vector-effect: non-scaling-stroke; fill: none; stroke: rgb(4, 108, 190); stroke-opacity: 1; stroke-width: 1.5px; opacity: 1;" d="M0,442.47L1.16,116.47L1.53,114.85L2.99,23.5L4.57,249.08L6.44,367.11L7.77,400.05L9.72,428.7L10.53,431.1L11.44,436.45L13.44,442.13L14.78,443.24L15.68,444.12L17.19,444.84L18.34,445.03L24.58,445.48L25.38,445.38L29.35,444.54L30.15,442.38L33.14,376.36L33.62,392.97L34.68,416.05L36.14,430.56L38.45,435.97L39.55,436.45L39.93,436.17L40.15,434.24L40.63,432.6L40.99,432.95L44.78,426.14L45.33,427.47L46.54,427.37L48.12,422.09L49.12,353.21L50.05,274.59L51.08,261.87L51.79,206.15L56.16,247.95L58.1,338.39L59.08,242.37L60.56,191.59L63.05,179.79L63.67,204.64L65.08,180.6L65.13,181.02L65.44,191.3L67.62,225.56L70.84,216.31L71.87,209.58L73.3,229.81L74.53,248.43L74.95,193.59L77.45,251.74L78.12,159.6L79.38,207.49L81.59,215.15L84.45,258L84.81,264.74L86.02,248.63L87.47,273.82L87.98,280.79L88.08,280.05L88.33,215.53L89.28,242.88L90.01,259.3L90.53,266.69L92.22,223.44L94.13,273.97L95.14,236.8L95.33,232.83L95.89,249.04L98.32,302.17L100.11,294.79L101.31,312.92L102.54,294.16L102.75,293.73L103.76,304.4L105.13,315.87L105.66,290.97L107.07,303.4L108.33,322.37L110.91,318.39L112.83,299.08L113.9,313.13L114.2,384.3L114.23,383.77L115.84,332.7L117.95,347.78L118.96,337.27L119.56,318.59L119.63,410.6L119.89,400.1L120.56,315.58L120.69,318.22L126.19,410.07L127.12,290.53L127.55,323.75"/></g><g class="points"/><g class="text"/></g><g class="trace scatter traced107f2" style="stroke-miterlimit: 2; opacity: 1;"><g class="fills"/><g class="errorbars"/><g class="lines"/><g class="points"><path class="point" transform="translate(799.95,407.13)" style="opacity: 1; stroke-width: 0px; fill: rgb(251, 147, 65); fill-opacity: 1;" d="M3,0A3,3 0 1,1 0,-3A3,3 0 0,1 3,0Z"/></g><g class="text"/></g><g class="trace scatter trace6b61a5" style="stroke-miterlimit: 2; opacity: 1;"><g class="fills"/><g class="errorbars"/><g class="lines"/><g class="points"><path class="point" transform="translate(127.55,323.75)" style="opacity: 1; stroke-width: 0px; fill: rgb(4, 108, 190); fill-opacity: 1;" d="M3,0A3,3 0 1,1 0,-3A3,3 0 0,1 3,0Z"/></g><g class="text"/></g></g></g><g class="overplot"/><path class="xlines-above crisp" style="fill: none;" d="M0,0"/><path class="ylines-above crisp" style="fill: none;" d="M0,0"/><g class="overlines-above"/><g class="xaxislayer-above"><g class="xtick"><text text-anchor="middle" x="0" y="543" style="font-family: TOBESTRIPPEDOpen SansTOBESTRIPPED, verdana, arial, sans-serif; font-size: 12px; fill: rgb(32, 32, 32); fill-opacity: 1; white-space: pre;" transform="translate(79.98,0)">0</text></g><g class="xtick"><text text-anchor="middle" x="0" y="543" style="font-family: TOBESTRIPPEDOpen SansTOBESTRIPPED, verdana, arial, sans-serif; font-size: 12px; fill: rgb(32, 32, 32); fill-opacity: 1; white-space: pre;" transform="translate(246.09,0)">10k</text></g><g class="xtick"><text text-anchor="middle" x="0" y="543" style="font-family: TOBESTRIPPEDOpen SansTOBESTRIPPED, verdana, arial, sans-serif; font-size: 12px; fill: rgb(32, 32, 32); fill-opacity: 1; white-space: pre;" transform="translate(412.19,0)">20k</text></g><g class="xtick"><text text-anchor="middle" x="0" y="543" style="font-family: TOBESTRIPPEDOpen SansTOBESTRIPPED, verdana, arial, sans-serif; font-size: 12px; fill: rgb(32, 32, 32); fill-opacity: 1; white-space: pre;" transform="translate(578.29,0)">30k</text></g><g class="xtick"><text text-anchor="middle" x="0" y="543" style="font-family: TOBESTRIPPEDOpen SansTOBESTRIPPED, verdana, arial, sans-serif; font-size: 12px; fill: rgb(32, 32, 32); fill-opacity: 1; white-space: pre;" transform="translate(744.39,0)">40k</text></g><g class="xtick"><text text-anchor="middle" x="0" y="543" style="font-family: TOBESTRIPPEDOpen SansTOBESTRIPPED, verdana, arial, sans-serif; font-size: 12px; fill: rgb(32, 32, 32); fill-opacity: 1; white-space: pre;" transform="translate(910.5,0)">50k</text></g></g><g class="yaxislayer-above"><g class="ytick"><text text-anchor="end" x="69" y="4.199999999999999" style="font-family: TOBESTRIPPEDOpen SansTOBESTRIPPED, verdana, arial, sans-serif; font-size: 12px; fill: rgb(32, 32, 32); fill-opacity: 1; white-space: pre;" transform="translate(0,496.5)">0</text></g><g class="ytick"><text text-anchor="end" x="69" y="4.199999999999999" style="font-family: TOBESTRIPPEDOpen SansTOBESTRIPPED, verdana, arial, sans-serif; font-size: 12px; fill: rgb(32, 32, 32); fill-opacity: 1; white-space: pre;" transform="translate(0,395.12)">0.005</text></g><g class="ytick"><text text-anchor="end" x="69" y="4.199999999999999" style="font-family: TOBESTRIPPEDOpen SansTOBESTRIPPED, verdana, arial, sans-serif; font-size: 12px; fill: rgb(32, 32, 32); fill-opacity: 1; white-space: pre;" transform="translate(0,293.73)">0.01</text></g><g class="ytick"><text text-anchor="end" x="69" y="4.199999999999999" style="font-family: TOBESTRIPPEDOpen SansTOBESTRIPPED, verdana, arial, sans-serif; font-size: 12px; fill: rgb(32, 32, 32); fill-opacity: 1; white-space: pre;" transform="translate(0,192.34)">0.015</text></g><g class="ytick"><text text-anchor="end" x="69" y="4.199999999999999" style="font-family: TOBESTRIPPEDOpen SansTOBESTRIPPED, verdana, arial, sans-serif; font-size: 12px; fill: rgb(32, 32, 32); fill-opacity: 1; white-space: pre;" transform="translate(0,90.96000000000001)">0.02</text></g></g><g class="overaxes-above"/></g></g><g class="polarlayer"/><g class="ternarylayer"/><g class="geolayer"/><g class="funnelarealayer"/><g class="pielayer"/><g class="treemaplayer"/><g class="sunburstlayer"/><g class="glimages"/><defs id="topdefs-89e91a"><g class="clips"/><clipPath id="legend89e91a"><rect width="245" height="58" x="0" y="0"/></clipPath></defs><g class="layer-above"><g class="imagelayer"/><g class="shapelayer"/></g><g class="infolayer"><g class="legend" pointer-events="all" transform="translate(942.92, 50)"><rect class="bg" shape-rendering="crispEdges" style="stroke: rgb(68, 68, 68); stroke-opacity: 1; fill: rgb(255, 255, 255); fill-opacity: 1; stroke-width: 0px;" width="245" height="58" x="0" y="0"/><g class="scrollbox" transform="translate(0, 0)" clip-path="url('#legend89e91a')"><g class="groups" transform="translate(0, 0)"><g class="traces" style="opacity: 1;" transform="translate(0, 14.5)"><text class="legendtext" text-anchor="start" style="font-family: TOBESTRIPPEDOpen SansTOBESTRIPPED, verdana, arial, sans-serif; font-size: 12px; fill: rgb(68, 68, 68); fill-opacity: 1; white-space: pre;" x="40" y="4.680000000000001">Running Value Loss (PER_Beta=0.4)</text><g class="layers" style="opacity: 1;"><g class="legendfill"/><g class="legendlines"><path class="js-line" d="M5,0h30" style="fill: none; stroke: rgb(251, 147, 65); stroke-opacity: 1; stroke-width: 1.5px;"/></g><g class="legendsymbols"><g class="legendpoints"/></g></g><rect class="legendtoggle" style="fill: rgb(0, 0, 0); fill-opacity: 0;" x="0" y="-9.5" width="239.4499969482422" height="19"/></g></g><g class="groups" transform="translate(0, 10)"><g class="traces" style="opacity: 1;" transform="translate(0, 33.5)"><text class="legendtext" text-anchor="start" style="font-family: TOBESTRIPPEDOpen SansTOBESTRIPPED, verdana, arial, sans-serif; font-size: 12px; fill: rgb(68, 68, 68); fill-opacity: 1; white-space: pre;" x="40" y="4.680000000000001">Running Value Loss (PER_Beta=0.1)</text><g class="layers" style="opacity: 1;"><g class="legendfill"/><g class="legendlines"><path class="js-line" d="M5,0h30" style="fill: none; stroke: rgb(4, 108, 190); stroke-opacity: 1; stroke-width: 1.5px;"/></g><g class="legendsymbols"><g class="legendpoints"/></g></g><rect class="legendtoggle" style="fill: rgb(0, 0, 0); fill-opacity: 0;" x="0" y="-9.5" width="239.4499969482422" height="19"/></g></g></g><rect class="scrollbar" rx="20" ry="3" width="0" height="0" style="fill: rgb(128, 139, 164); fill-opacity: 1;" x="0" y="0"/></g><g class="g-gtitle"/><g class="g-xtitle"/><g class="g-ytitle"/></g></svg>